<svg xmlns="http://www.w3.org/2000/svg" width="500" height="500" viewBox="0 0 500 500"><title>logo-pg_white</title><path d="M341.13,310.75c3.49,0,6.06-2.75,7.53-6.42a56.73,56.73,0,0,1-7.9.36C335.44,304.69,335.44,310.75,341.13,310.75Z" fill="#fff"/><path d="M261.48,226.87c-6.06,0-9.54,12.85-9.54,22.76,0,10.1,3.85,16.52,9,16.52,5.32,0,7.71-7,7.71-15.42v-4.4C268.64,237,267.72,226.87,261.48,226.87Z" fill="#fff"/><path d="M166.47,14.34C5.48-37.72,18.47,54.48,49.79,250c27.93,195.52,25.38,287.72,140,235.66,111.85-48.93,265.72-149.11,278-235.66C489,163.45,324.67,63.27,166.47,14.34ZM164.58,241c-16.33,8.26-27.72,4.4-30.83,3.3-4.6-1.47.91-19.27,3.67-18,22.39,9,32.3-38.17-.19-38.17a40.33,40.33,0,0,0-6.79.55v84.43c0,8.07.55,13.95-1.29,15.23a4.12,4.12,0,0,1-2.93,1.1H111.53a4.15,4.15,0,0,1-4.22-4.22V176.4a4.15,4.15,0,0,1,4.22-4.22h14.69a4.46,4.46,0,0,1,3.12,1.28A60.94,60.94,0,0,1,145,171.3c-.75,0-1.52,0-2.3,0h3.67c-.47,0-.91,0-1.37,0C192.59,173,190.24,228,164.58,241ZM399,250c-7.53,18.54-14.14,36.16-28.09,46.25V297c0,13.21-8.62,31.75-29.18,31.75s-21.47-33.77,0-33.77a39.55,39.55,0,0,0,8.26-.74v-20c-5.14,8.26-11.75,15.23-19.82,15.23-12.45,0-18-5.39-19.85-17.29-5.24,9-12.34,17.29-21.07,17.29-10.84,0-16.53-4-19.1-13.21-2.56,6.24-9.91,13.21-21.65,13.21-7.88,0-13.19-7.31-16.14-18.29-5.31,9.42-12.61,18.29-21.67,18.29-15.78,0-20.56-8.63-20.56-28.26V176.58a4.47,4.47,0,0,1,4.41-4.4H206.6a4.47,4.47,0,0,1,4.41,4.4v82.78c0,4.77,2,9.36,6.61,9.36s9.27-10,12-16.84c-.06-1.64-.1-3.31-.1-5,0-23.13,10.83-41.48,21.66-41.48,9,0,14.5,4,17.44,8.81V209.8a4.46,4.46,0,0,1,4.4-4.4h12.11a4.46,4.46,0,0,1,4.41,4.4v49.56c0,4.77,2,9.36,6.61,9.36,5.53,0,11.05-14.25,13.39-20.31V209.62a4.31,4.31,0,0,1,4.4-4.22h12.12a4.31,4.31,0,0,1,4.41,4.22v49.74c0,4.77,2,9.36,6.6,9.36,5.14,0,10.28-12.11,12.85-18.72V209.62a4.31,4.31,0,0,1,4.4-4.22h12.12a4.31,4.31,0,0,1,4.4,4.22v70.85c6.79-8.81,11.75-20.74,18.18-34C392.15,240.09,401.52,243.39,399,250ZM116.46,314.79h8.39V323a12.23,12.23,0,0,1-8.15,3.21,10.85,10.85,0,0,1,0-21.7,12,12,0,0,1,8.15,3.21l-1.62,1.64a9.63,9.63,0,0,0-6.53-2.65,8.66,8.66,0,0,0,0,17.3,10.11,10.11,0,0,0,5.77-1.95v-5h-6Zm23.59,3.3,5.43,7.75h-2.72l-5.31-7.54H131.9v7.54h-2.38v-21H138c4.33,0,7.72,2.78,7.72,6.71C145.75,314.89,143.37,317.39,140.05,318.09Zm-8.15-2h5.71c3.41,0,5.73-1.64,5.73-4.45s-2.32-4.45-5.73-4.45H131.9Zm16.63-.7a10.73,10.73,0,1,1,10.74,10.87A10.94,10.94,0,0,1,148.53,315.34Zm19,0a8.32,8.32,0,1,0-8.3,8.67A8.58,8.58,0,0,0,167.57,315.34Zm6.62,1.8V304.88h2.38v12.26c0,4,2.66,6.9,6.38,6.9s6.38-2.87,6.38-6.9V304.88h2.38v12.26c0,5.31-3.63,9.07-8.76,9.07S174.19,322.45,174.19,317.14Zm22.56-12.26h8.51c4.33,0,7.72,2.78,7.72,6.71s-3.39,6.71-7.72,6.71h-6.13v7.54h-2.38ZM204.83,316c3.42,0,5.74-1.64,5.74-4.45s-2.32-4.45-5.74-4.45h-5.7V316Z" fill="#fff"/></svg>