<svg xmlns="http://www.w3.org/2000/svg" xmlns:xlink="http://www.w3.org/1999/xlink" width="500" height="500" viewBox="0 0 500 500"><defs><linearGradient id="a" x1="357.13" y1="307.54" x2="368.97" y2="307.54" gradientUnits="userSpaceOnUse"><stop offset="0" stop-color="#10dfb3"/><stop offset="0.25" stop-color="#0fdcb3"/><stop offset="0.46" stop-color="#0dd1b3"/><stop offset="0.67" stop-color="#0abfb3"/><stop offset="0.86" stop-color="#04a6b4"/><stop offset="1" stop-color="#0090b4"/></linearGradient><linearGradient id="b" x1="50.63" y1="250" x2="490.01" y2="250" xlink:href="#a"/><linearGradient id="c" x1="50.63" y1="171.28" x2="490.01" y2="171.28" xlink:href="#a"/><linearGradient id="d" x1="127.63" y1="171.28" x2="202.96" y2="171.28" xlink:href="#a"/><linearGradient id="e" x1="50.63" y1="230.38" x2="490.01" y2="230.38" xlink:href="#a"/><linearGradient id="f" x1="50.63" y1="307.54" x2="490.01" y2="307.54" xlink:href="#a"/><linearGradient id="g" x1="210.4" y1="307.54" x2="419.7" y2="307.54" xlink:href="#a"/><linearGradient id="h" x1="50.63" y1="250.46" x2="490.01" y2="250.46" xlink:href="#a"/><linearGradient id="i" x1="272.25" y1="246.51" x2="288.95" y2="246.51" gradientUnits="userSpaceOnUse"><stop offset="0" stop-color="#10dfb3"/><stop offset="0.34" stop-color="#0fdcb3"/><stop offset="0.64" stop-color="#0dd1b3"/><stop offset="0.91" stop-color="#09bfb4"/><stop offset="1" stop-color="#08b8b4"/></linearGradient><linearGradient id="j" x1="50.63" y1="246.51" x2="490.01" y2="246.51" xlink:href="#a"/></defs><title>logo-pg</title><path d="M361.45,310.75c3.48,0,6.06-2.75,7.52-6.42a56.59,56.59,0,0,1-7.89.36C355.76,304.69,355.76,310.75,361.45,310.75Z" fill="url(#a)"/><path d="M186.78,14.34C25.8-37.72,38.79,54.48,70.1,250,98,445.52,95.49,537.72,210.12,485.66,322,436.73,475.83,336.55,488.16,250,509.3,163.45,345,63.27,186.78,14.34ZM184.9,241c-16.34,8.26-27.72,4.4-30.84,3.3-4.59-1.47.92-19.27,3.67-18,22.39,9,32.31-38.17-.18-38.17a40.33,40.33,0,0,0-6.79.55v84.43c0,8.07.55,13.95-1.29,15.23a4.14,4.14,0,0,1-2.93,1.1H131.85a4.15,4.15,0,0,1-4.22-4.22V176.4a4.15,4.15,0,0,1,4.22-4.22h14.69a4.42,4.42,0,0,1,3.11,1.28,61.09,61.09,0,0,1,15.71-2.16c-.76,0-1.53,0-2.31,0h3.68c-.47,0-.91,0-1.37,0C212.91,173,210.55,228,184.9,241Zm234.36,9c-7.52,18.54-14.13,36.16-28.08,46.25V297c0,13.21-8.62,31.75-29.18,31.75S340.52,295,362,295a39.61,39.61,0,0,0,8.26-.74v-20c-5.14,8.26-11.75,15.23-19.82,15.23-12.45,0-18-5.39-19.85-17.29-5.24,9-12.35,17.29-21.08,17.29-10.83,0-16.52-4-19.09-13.21-2.57,6.24-9.91,13.21-21.66,13.21-7.87,0-13.19-7.31-16.13-18.29-5.31,9.42-12.62,18.29-21.67,18.29-15.79,0-20.56-8.63-20.56-28.26V176.58a4.47,4.47,0,0,1,4.41-4.4h12.11a4.47,4.47,0,0,1,4.41,4.4v82.78c0,4.77,2,9.36,6.61,9.36s9.27-10,12-16.84c-.06-1.64-.1-3.31-.1-5,0-23.13,10.83-41.48,21.66-41.48,9,0,14.5,4,17.43,8.81V209.8a4.47,4.47,0,0,1,4.41-4.4h12.11a4.46,4.46,0,0,1,4.41,4.4v49.56c0,4.77,2,9.36,6.61,9.36,5.52,0,11.05-14.25,13.39-20.31V209.62a4.31,4.31,0,0,1,4.4-4.22H346.4a4.31,4.31,0,0,1,4.4,4.22v49.74c0,4.77,2,9.36,6.61,9.36,5.14,0,10.28-12.11,12.85-18.72V209.62a4.31,4.31,0,0,1,4.4-4.22h12.12a4.31,4.31,0,0,1,4.4,4.22v70.85c6.79-8.81,11.75-20.74,18.17-34C412.47,240.09,421.83,243.39,419.26,250Z" fill="url(#b)"/><path d="M163.05,171.26c.78,0,1.55,0,2.31,0,.46,0,.9,0,1.37,0Z" fill="url(#c)"/><path d="M163.05,171.26c.78,0,1.55,0,2.31,0,.46,0,.9,0,1.37,0Z" fill="url(#d)"/><path d="M165.36,171.3a61.09,61.09,0,0,0-15.71,2.16,4.42,4.42,0,0,0-3.11-1.28H131.85a4.15,4.15,0,0,0-4.22,4.22V285.24a4.15,4.15,0,0,0,4.22,4.22h14.69a4.14,4.14,0,0,0,2.93-1.1c1.84-1.28,1.29-7.16,1.29-15.23V188.7a40.33,40.33,0,0,1,6.79-.55c32.49,0,22.57,47.17.18,38.17-2.75-1.28-8.26,16.52-3.67,18,3.12,1.1,14.5,5,30.84-3.3C210.55,228,212.91,173,165.36,171.3Z" fill="url(#e)"/><path d="M165.36,171.3a61.09,61.09,0,0,0-15.71,2.16,4.42,4.42,0,0,0-3.11-1.28H131.85a4.15,4.15,0,0,0-4.22,4.22V285.24a4.15,4.15,0,0,0,4.22,4.22h14.69a4.14,4.14,0,0,0,2.93-1.1c1.84-1.28,1.29-7.16,1.29-15.23V188.7a40.33,40.33,0,0,1,6.79-.55c32.49,0,22.57,47.17.18,38.17-2.75-1.28-8.26,16.52-3.67,18,3.12,1.1,14.5,5,30.84-3.3C210.55,228,212.91,173,165.36,171.3Z" fill="#fff"/><path d="M361.45,310.75c3.48,0,6.06-2.75,7.52-6.42a56.59,56.59,0,0,1-7.89.36C355.76,304.69,355.76,310.75,361.45,310.75Z" fill="url(#f)"/><path d="M361.45,310.75c3.48,0,6.06-2.75,7.52-6.42a56.59,56.59,0,0,1-7.89.36C355.76,304.69,355.76,310.75,361.45,310.75Z" fill="url(#g)"/><path d="M409.35,246.51c-6.42,13.22-11.38,25.15-18.17,34V209.62a4.31,4.31,0,0,0-4.4-4.22H374.66a4.31,4.31,0,0,0-4.4,4.22V250c-2.57,6.61-7.71,18.72-12.85,18.72-4.59,0-6.61-4.59-6.61-9.36V209.62a4.31,4.31,0,0,0-4.4-4.22H334.28a4.31,4.31,0,0,0-4.4,4.22v38.79c-2.34,6.06-7.87,20.31-13.39,20.31-4.59,0-6.61-4.59-6.61-9.36V209.8a4.46,4.46,0,0,0-4.41-4.4H293.36a4.47,4.47,0,0,0-4.41,4.4v4.41c-2.93-4.77-8.44-8.81-17.43-8.81-10.83,0-21.66,18.35-21.66,41.48,0,1.69,0,3.36.1,5-2.75,6.81-7.39,16.84-12,16.84s-6.61-4.59-6.61-9.36V176.58a4.47,4.47,0,0,0-4.41-4.4H214.81a4.47,4.47,0,0,0-4.41,4.4V261.2c0,19.63,4.77,28.26,20.56,28.26,9,0,16.36-8.87,21.67-18.29,2.94,11,8.26,18.29,16.13,18.29,11.75,0,19.09-7,21.66-13.21,2.57,9.18,8.26,13.21,19.09,13.21,8.73,0,15.84-8.25,21.08-17.29,1.81,11.9,7.4,17.29,19.85,17.29,8.07,0,14.68-7,19.82-15.23v20A39.61,39.61,0,0,1,362,295c-21.48,0-20.56,33.77,0,33.77S391.18,310.2,391.18,297v-.74c13.95-10.09,20.56-27.71,28.08-46.25C421.83,243.39,412.47,240.09,409.35,246.51ZM289,250.73c0,8.45-2.38,15.42-7.71,15.42-5.13,0-9-6.42-9-16.52,0-9.91,3.49-22.76,9.55-22.76,6.24,0,7.15,10.1,7.15,19.46Zm72.5,60c-5.69,0-5.69-6.06-.37-6.06a56.59,56.59,0,0,0,7.89-.36C367.51,308,364.93,310.75,361.45,310.75Z" fill="url(#h)"/><path d="M409.35,246.51c-6.42,13.22-11.38,25.15-18.17,34V209.62a4.31,4.31,0,0,0-4.4-4.22H374.66a4.31,4.31,0,0,0-4.4,4.22V250c-2.57,6.61-7.71,18.72-12.85,18.72-4.59,0-6.61-4.59-6.61-9.36V209.62a4.31,4.31,0,0,0-4.4-4.22H334.28a4.31,4.31,0,0,0-4.4,4.22v38.79c-2.34,6.06-7.87,20.31-13.39,20.31-4.59,0-6.61-4.59-6.61-9.36V209.8a4.46,4.46,0,0,0-4.41-4.4H293.36a4.47,4.47,0,0,0-4.41,4.4v4.41c-2.93-4.77-8.44-8.81-17.43-8.81-10.83,0-21.66,18.35-21.66,41.48,0,1.69,0,3.36.1,5-2.75,6.81-7.39,16.84-12,16.84s-6.61-4.59-6.61-9.36V176.58a4.47,4.47,0,0,0-4.41-4.4H214.81a4.47,4.47,0,0,0-4.41,4.4V261.2c0,19.63,4.77,28.26,20.56,28.26,9,0,16.36-8.87,21.67-18.29,2.94,11,8.26,18.29,16.13,18.29,11.75,0,19.09-7,21.66-13.21,2.57,9.18,8.26,13.21,19.09,13.21,8.73,0,15.84-8.25,21.08-17.29,1.81,11.9,7.4,17.29,19.85,17.29,8.07,0,14.68-7,19.82-15.23v20A39.61,39.61,0,0,1,362,295c-21.48,0-20.56,33.77,0,33.77S391.18,310.2,391.18,297v-.74c13.95-10.09,20.56-27.71,28.08-46.25C421.83,243.39,412.47,240.09,409.35,246.51ZM289,250.73c0,8.45-2.38,15.42-7.71,15.42-5.13,0-9-6.42-9-16.52,0-9.91,3.49-22.76,9.55-22.76,6.24,0,7.15,10.1,7.15,19.46Zm72.5,60c-5.69,0-5.69-6.06-.37-6.06a56.59,56.59,0,0,0,7.89-.36C367.51,308,364.93,310.75,361.45,310.75Z" fill="#fff"/><path d="M281.8,226.87c-6.06,0-9.55,12.85-9.55,22.76,0,10.1,3.86,16.52,9,16.52,5.33,0,7.71-7,7.71-15.42v-4.4C289,237,288,226.87,281.8,226.87Z" fill="url(#i)"/><path d="M281.8,226.87c-6.06,0-9.55,12.85-9.55,22.76,0,10.1,3.86,16.52,9,16.52,5.33,0,7.71-7,7.71-15.42v-4.4C289,237,288,226.87,281.8,226.87Z" fill="url(#j)"/><text transform="translate(124.69 325.84)" font-size="30.52" fill="#fff" font-family="Metropolis-Regular, Metropolis">GROUP</text></svg>